<?xml version="1.0" encoding="UTF-8" standalone="no"?>
<!-- Created with Inkscape (http://www.inkscape.org/) -->

<svg
   version="1.1"
   id="svg1"
   width="360"
   height="360"
   viewBox="0 0 360 360"
   sodipodi:docname="chibanysad.svg"
   inkscape:version="1.4.2 (f4327f4, 2025-05-13)"
   inkscape:export-filename="chibanysad.png"
   inkscape:export-xdpi="96"
   inkscape:export-ydpi="96"
   xmlns:inkscape="http://www.inkscape.org/namespaces/inkscape"
   xmlns:sodipodi="http://sodipodi.sourceforge.net/DTD/sodipodi-0.dtd"
   xmlns="http://www.w3.org/2000/svg"
   xmlns:svg="http://www.w3.org/2000/svg">
  <defs
     id="defs1" />
  <sodipodi:namedview
     id="namedview1"
     pagecolor="#ffffff"
     bordercolor="#000000"
     borderopacity="0.25"
     inkscape:showpageshadow="2"
     inkscape:pageopacity="0.0"
     inkscape:pagecheckerboard="0"
     inkscape:deskcolor="#d1d1d1"
     inkscape:zoom="5.6568543"
     inkscape:cx="103.85631"
     inkscape:cy="147.87371"
     inkscape:window-width="1924"
     inkscape:window-height="1178"
     inkscape:window-x="-83"
     inkscape:window-y="323"
     inkscape:window-maximized="0"
     inkscape:current-layer="a1"
     inkscape:export-bgcolor="#ffffffff" />
  <g
     inkscape:groupmode="layer"
     inkscape:label="Image"
     id="g1">
    <a
       id="a1">
      <path
         style="fill:#000000"
         d="m 136.44972,348.06692 c -6.00358,-1.54963 -6.82714,-5.69083 -1.87074,-9.40686 4.80561,-3.60298 10.55766,-6.23398 16.75,-7.6615 7.79399,-1.79673 9,-2.60736 9,-6.04938 0,-3.4627 3.54963,-20.21494 5.11301,-24.13051 1.49944,-3.75545 0.47233,-6.05369 -3.71273,-8.30749 -4.87106,-2.62324 -9.79708,-8.57845 -11.38087,-13.75865 -0.83542,-2.73246 -1.2735,-9.50647 -1.22295,-18.91056 l 0.0788,-14.65298 -4.6876,-4.24361 c -2.57819,-2.33398 -7.30076,-6.65264 -10.49461,-9.59701 -5.40305,-4.98097 -6.15439,-5.35341 -10.79971,-5.35341 -10.76054,0 -17.89334,-7.94434 -17.89334,-19.92918 0,-4.03311 -0.4711,-5.07508 -3.65035,-8.07383 -5.228004,-4.93118 -7.341634,-8.87995 -7.345914,-13.72394 -0.003,-3.37974 0.48525,-4.54734 2.43599,-5.82552 2.23911,-1.46712 2.71192,-1.4639 5.750004,0.0392 1.82065,0.90074 5.48363,4.30972 8.13996,7.57552 4.51572,5.5518 5.1044,5.9378 9.05572,5.9378 5.63373,0 10.08482,3.35506 14.86459,11.20434 2.0625,3.38701 3.75,6.66336 3.75,7.28077 0,2.44646 13.86875,13.51489 16.93416,13.51489 1.09963,0 2.53941,-2.32697 4.40206,-7.11458 1.52238,-3.91301 2.63202,-7.17551 2.46587,-7.25 -0.16615,-0.0745 -1.30848,-0.69792 -2.53852,-1.38542 -1.23004,-0.6875 -3.3218,-1.25 -4.64835,-1.25 -3.88964,0 -19.73603,-8.53759 -24.50796,-13.20421 -5.8884,-5.75844 -8.7358,-10.47843 -11.8437,-19.63268 -2.14406,-6.31529 -2.60424,-9.5099 -2.61638,-18.16311 -0.008,-5.775 0.43885,-12.525 0.99321,-15 2.48977,-11.1157 13.12074,-26.92636 22.73503,-33.81214 2.54352,-1.82167 4.62458,-3.86402 4.62458,-4.53855 0,-1.20268 -1.67508,-4.676051 -5.61803,-11.649311 -2.69942,-4.77402 -8.62278,-20.09253 -8.00735,-20.70796 0.27373,-0.27373 0.0204,-1.68892 -0.56296,-3.14487 -3.6075,-9.00362 -4.87514,-36.4675 -2.08142,-45.09483 2.87206,-8.86924 8.78342,-11.17143 17.80104,-6.93264 5.87008,2.75921 17.46872,15.96922 17.46872,19.89555 0,0.58028 0.77671,2.24046 1.72602,3.6893 1.99695,3.04772 5.89811,13.5487 7.72559,20.79539 2.99131,11.86173 3.69513,15.6612 4.35244,23.49598 l 0.69595,8.29534 9.44999,-0.21024 c 5.1975,-0.11563 9.79257,-0.42196 10.21127,-0.68073 0.4187,-0.25878 1.02898,-2.14221 1.35618,-4.18542 0.98181,-6.13096 4.5057,-20.01403 6.0899,-23.99244 0.81527,-2.04737 1.82955,-4.62249 2.25396,-5.72249 0.42441,-1.1 2.96165,-6.42595 5.63832,-11.83544 11.46311,-23.1667 21.54227,-32.06583 32.57424,-28.76058 8.08258,2.4216 12.00885,16.54788 8.99205,32.35238 -2.39905,12.56821 -12.16388,34.78999 -20.49779,46.64674 -1.96247,2.79202 -3.56812,5.536601 -3.56812,6.099081 0,0.56247 2.40928,2.56387 5.35397,4.44756 5.57652,3.56726 17.64603,15.92843 17.64603,18.07245 0,0.67811 0.62001,1.74749 1.37779,2.3764 0.75779,0.6289 2.66983,4.6215 4.24898,8.87244 2.59592,6.98797 2.87129,8.9274 2.87221,20.22898 9.6e-4,11.80661 -0.18572,12.98154 -3.36535,21.18091 -3.98736,10.28227 -10.64543,18.7724 -18.41526,23.48247 -2.8701,1.73985 -9.84584,4.66485 -15.50163,6.5 -9.85422,3.19741 -10.25923,3.44092 -9.70736,5.83662 0.78502,3.40778 3.5587,5.54351 9.76018,7.51531 15.22388,4.84055 26.49318,10.30985 31.17415,15.1297 6.50504,6.69802 4.6532,11.51328 -7.19371,18.70546 -6.89712,4.1872 -7.28321,5.20007 -4.25,11.14952 2.58263,5.06568 2.52293,6.06798 -0.54408,9.13499 -2.23576,2.23576 -3.23042,2.50294 -8.2071,2.20455 l -5.663,-0.33954 -0.69023,3.36548 c -0.81606,3.97902 -3.95707,8.56801 -8.48764,12.40037 -3.39395,2.8709 -3.61222,4.43649 -1.42173,10.19792 0.52612,1.38379 1.63782,6.68305 2.47044,11.77611 2.15637,13.19034 2.3601,14.0172 3.77334,15.31454 0.6985,0.64122 5.15733,2.37784 9.9085,3.85917 10.05825,3.13596 17.8615,7.68357 17.8615,10.4094 0,1.02687 -0.94645,2.72428 -2.10322,3.77202 -1.82323,1.65138 -4.05312,1.95173 -16.75,2.25607 -17.31582,0.41507 -23.32748,-0.64468 -27.90026,-4.91831 -1.78558,-1.66878 -3.2884,-3.57383 -3.33959,-4.23346 -0.0512,-0.65962 -0.28812,-6.37431 -0.52652,-12.69931 -0.56038,-14.86722 -2.8112,-28.09579 -5.06192,-29.75 -2.24557,-1.65043 -9.78008,-1.60367 -11.16853,0.0693 -1.93651,2.33335 -4.02162,13.86514 -4.64344,25.68069 -0.96132,18.26687 -1.87023,20.87165 -8.20676,23.51922 -4.29855,1.79605 -31.78848,2.94414 -37.17902,1.55275 z m 31.27603,-4.41797 c 6.76003,-1.59311 8.60021,-4.33452 9.2139,-13.72642 0.26693,-4.08517 0.91033,-10.12758 1.42978,-13.42758 0.51944,-3.3 0.94784,-8.15195 0.952,-10.78212 0.009,-5.74005 2.09107,-11.15703 4.85715,-12.63739 3.35512,-1.7956 14.5911,-1.35518 17.08046,0.66951 2.56981,2.09012 4.65458,14.8927 5.40855,33.21402 0.42192,10.25237 0.70164,11.65016 2.64661,13.2251 3.68411,2.9832 8.97819,4.0247 23.05298,4.53519 11.63136,0.42186 13.72674,0.26385 14.87679,-1.12187 1.18366,-1.42623 0.58022,-1.95675 -5.21402,-4.58399 -3.60394,-1.6341 -8.49849,-3.26933 -10.87679,-3.63385 -8.8738,-1.36006 -10.57098,-3.35888 -12.21388,-14.3846 -0.77719,-5.21586 -3.54611,-16.86653 -5.26595,-22.15731 -1.79243,-5.51409 -1.09899,-7.38259 4.04899,-10.91004 6.99151,-4.79066 9.59542,-12.74241 6.78136,-20.70874 -1.51507,-4.28902 -1.69718,-6.33824 -0.97343,-10.95356 0.75085,-4.78808 0.55681,-6.56927 -1.23862,-11.3702 -3.41625,-9.13498 -1.70199,-12.82423 5.34467,-11.50226 4.53097,0.85001 9.25613,4.72663 10.16238,8.33742 0.60492,2.4102 0.0682,3.28597 -4.44496,7.25295 -5.95459,5.23395 -7.66121,9.96604 -5.70184,15.80995 2.02697,6.04554 8.84194,9.50839 12.64776,6.42663 l 2.24942,-1.82147 -2.11004,-3.93687 c -3.73277,-6.96454 -2.31033,-10.85685 5.38996,-14.74885 9.0477,-4.57303 11.04171,-10.6772 4.99456,-15.28958 -3.15033,-2.40288 -25.42708,-12.20507 -32.99456,-14.51822 -4.37217,-1.33645 -5.10521,-2.00156 -6.86564,-6.22938 l -1.59042,-3.81954 -21.12053,0.26474 -21.12053,0.26474 -3.84053,8.31281 c -2.1123,4.57205 -4.61736,8.61091 -5.56681,8.97525 -4.94084,1.89598 -23.353,-12.81646 -25.29664,-20.21357 -1.72194,-6.55332 -8.99926,-12.46489 -15.34466,-12.46489 -2.94454,0 -4.07406,-0.84438 -8.81575,-6.59028 -7.60606,-9.21691 -9.938494,-10.20251 -9.938494,-4.19963 0,2.14829 1.39272,4.28065 5.500004,8.42087 3.025,3.04926 5.53256,5.84222 5.57236,6.20658 0.0398,0.36435 0.22072,3.27534 0.40204,6.46886 0.62314,10.97486 4.2335,14.91883 13.59059,14.84635 5.40116,-0.0418 5.99849,0.33688 20.81813,13.19915 4.97573,4.31855 9.3178,8.7058 9.64904,9.74944 0.33124,1.04364 0.0959,6.13816 -0.52291,11.32116 -1.19487,10.00745 -0.24523,19.28668 2.5213,24.63657 1.56911,3.03432 6.73258,7.66086 11.32172,10.14441 3.83639,2.07618 4.11011,5.38901 1.2345,14.94117 -2.33492,7.75612 -2.90515,10.65286 -3.59923,18.28402 -0.29657,3.26077 -1.00733,6.49271 -1.57947,7.18208 -0.57213,0.68938 -4.948,2.49212 -9.72415,4.0061 -13.57418,4.30283 -20.21928,8.45704 -15.48926,9.68316 3.62534,0.93976 24.94039,0.47616 29.70211,-0.64602 z m 66.60323,-100.76754 c 0,-1.78001 -4.87345,-5.88645 -6.98593,-5.88645 -3.07164,0 -3.41608,2.29167 -1.04346,6.94238 l 2.11017,4.13629 2.95961,-2.10743 c 1.62779,-1.15909 2.95961,-2.54724 2.95961,-3.08479 z m -28,-36.31064 c 12.45166,-1.78356 17.05872,-3.07246 25.5,-7.13403 11.64152,-5.60138 16.8351,-11.00184 22.89087,-23.80268 3.21506,-6.79608 4.83698,-21.22519 3.41458,-30.37718 -1.14541,-7.36972 -7.56149,-20.68435 -12.48618,-25.91123 -5.07573,-5.38721 -15.71218,-14.02323 -18.2723,-14.83578 -2.5459,-0.80804 -2.62457,-3.50196 -0.19361,-6.630051 5.82886,-7.50041 19.14664,-31.79169 19.14664,-34.92295 0,-0.49061 0.74062,-3.04525 1.64582,-5.67697 2.76907,-8.0506 3.92841,-17.25227 3.10453,-24.64051 -0.86329,-7.7416 -3.11887,-11.72602 -7.7161,-13.63025 -3.91723,-1.62257 -7.9181,0.18348 -13.67929,6.17503 -3.88974,4.04527 -13.35496,17.92661 -13.35496,19.5859 0,0.41506 -1.29949,3.44796 -2.88776,6.73977 -4.17221,8.64724 -7.55029,19.54167 -9.60766,30.98512 -0.98883,5.5 -2.29438,10.5164 -2.90123,11.14756 -0.67508,0.70213 -5.95531,1.28437 -13.60335,1.5 l -12.5,0.35244 -0.25076,-2.5 c -1.55956,-15.54847 -5.60624,-36.1372 -8.54986,-43.50001 -10.31706,-25.80592 -27.97144,-40.7119602 -33.79614,-28.53496 -2.89831,6.05912 -3.13344,24.3231 -0.48968,38.03496 2.64795,13.73355 6.79483,24.26123 15.21845,38.63505 3.00493,5.127531 2.55207,7.470041 -1.98639,10.274961 -4.3223,2.67133 -14.62313,13.48988 -18.10176,19.01156 -7.63004,12.11128 -9.49418,26.95142 -5.41877,43.13805 2.44007,9.69143 6.91453,17.20217 13.55471,22.75268 4.8841,4.0826 13.97932,9.18713 16.3702,9.18748 0.8525,1.3e-4 1.9775,0.41382 2.5,0.91932 1.43654,1.3898 11.91266,3.24582 21.45,3.80023 4.675,0.27176 8.6875,0.67108 8.91667,0.88739 0.88426,0.83465 13.01165,0.26852 22.08333,-1.0309 z m -41.08327,-13.39129 c -1.1485,0.39127 -3.94817,-0.18543 -4.9641,-1.99212 -0.60081,-1.06845 3.53994,-5.36696 7.53922,-6.04368 2.51351,-0.4253 7.27176,-1.11486 10.71135,-1.44072 l 7.7968,-0.73866 v -4.93936 c 0,-5.35235 0.30369,-5.13773 -9,-6.36027 -0.87828,-0.1154 -1.5,-1.22763 -1.5,-2.68341 0,-2.47444 0.039,-2.4846 8.16429,-2.13046 4.73501,0.20638 9.71358,-0.15548 11.8528,-0.86148 3.17767,-1.04873 3.91665,-0.9852 5.33571,0.45867 1.53152,1.55829 1.4814,1.81193 -0.71358,3.61148 -1.29844,1.06452 -3.66094,1.93549 -5.25,1.93549 -2.8004,0 -2.88922,0.15372 -2.88922,5 v 5 l 5.7968,1.59399 c 2.3375,0.002 2.89428,-0.32633 11.43929,0.71994 4.75018,0.58163 11.60568,3.57815 9.64853,6.19132 -1.30636,1.74424 -2.57709,1.49903 -4.35054,0.57901 -4.48507,-2.32677 -13.38023,-4.7016 -24.53408,-3.5239 -16.475,1.73955 -25.08327,5.62416 -25.08327,5.62416 z m -9.78702,-31.94215 c -0.682,-1.27434 -0.41671,-2.40466 0.96482,-4.11078 1.04801,-1.29424 1.90547,-3.20331 1.90547,-4.24237 0,-1.5538 -0.75456,-1.89164 -4.25,-1.90287 -7.03423,-0.0226 -8.90179,-0.8669 -8.55381,-3.86705 0.32672,-2.81678 0.2711,-2.80702 9.05381,-1.58989 3.80468,0.52726 4.75,0.36671 4.75,-0.80674 0,-0.99897 -1.55914,-1.67184 -4.9012,-2.11518 -4.88801,-0.64841 -7.2557,-2.85059 -5.23616,-4.87013 0.51051,-0.51051 6.40416,-1.09198 13.09701,-1.29216 12.07354,-0.36112 12.16635,-0.34667 11.85458,1.84542 -0.24124,1.69614 -1.3015,2.42822 -4.56423,3.15144 -2.59143,0.57442 -4.25,1.5029 -4.25,2.37917 0,1.16553 1.13606,1.30857 6.01182,0.75694 5.03986,-0.57019 6.11285,-0.41687 6.63674,0.94838 0.96865,2.52426 -1.66292,4.34724 -7.50219,5.19704 -5.04685,0.73447 -5.40583,0.98256 -6.64562,4.59261 -2.32477,6.7693 -6.38244,9.64189 -8.37104,5.92617 z m 47.87029,-7.36264 c 0,-3.52084 5.20248,-10.89828 7.48978,-10.62097 3.01305,0.3653 2.88097,2.76507 -0.44043,8.00238 -3.26869,5.15419 -7.04935,6.55857 -7.04935,2.61859 z m 22.29129,-0.12973 c -3.02764,-3.31116 -5.36345,-8.39838 -4.67722,-10.18665 1.02697,-2.67625 4.22468,-1.77759 6.00164,1.68665 0.9169,1.7875 2.50576,4.32612 3.53081,5.64137 1.41889,1.8206 1.5946,2.71564 0.73616,3.75 -1.61304,1.94358 -3.23572,1.6849 -5.59139,-0.89137 z m 7.01727,-9.53908 c -1.84042,-1.16867 -4.21212,-6.29867 -3.62244,-7.83534 0.85152,-2.21904 3.94806,-1.58284 5.76067,1.18356 2.65194,4.04736 1.14463,8.73641 -2.13823,6.65178 z m 3.64074,-6.79295 c -1.9372,-3.13447 -2.03205,-3.76379 -0.7591,-5.03674 1.91779,-1.91779 4.00936,-1.00628 6.19984,2.70191 3.66465,6.20376 -1.64213,8.48111 -5.44074,2.33483 z"
         id="path1"
         sodipodi:nodetypes="sssssssscssssssssssssssssssscssssssscsssscssssssssssssssssssssssssscssssssssssssssssssssscssssssssssssssssssscssssscccsssssssssssssssssssssssscssssssssssssssssssscsssssssssssssscssscsssssssssccsssscssssssssssssssssssssssssssssssssssss" />
    </a>
  </g>
</svg>
