<?xml version="1.0" encoding="UTF-8" standalone="no"?>
<svg
   viewBox="0 0 800 600"
   version="1.1"
   id="svg42"
   sodipodi:docname="foggy_night_collision.svg"
   inkscape:version="1.4.2 (f4327f4, 2025-05-13)"
   inkscape:export-filename="foggy_night_collision.png"
   inkscape:export-xdpi="96"
   inkscape:export-ydpi="96"
   xmlns:inkscape="http://www.inkscape.org/namespaces/inkscape"
   xmlns:sodipodi="http://sodipodi.sourceforge.net/DTD/sodipodi-0.dtd"
   xmlns="http://www.w3.org/2000/svg"
   xmlns:svg="http://www.w3.org/2000/svg">
  <sodipodi:namedview
     id="namedview42"
     pagecolor="#ffffff"
     bordercolor="#000000"
     borderopacity="0.25"
     inkscape:showpageshadow="2"
     inkscape:pageopacity="0.0"
     inkscape:pagecheckerboard="0"
     inkscape:deskcolor="#d1d1d1"
     inkscape:zoom="2.0216667"
     inkscape:cx="178.0709"
     inkscape:cy="584.4188"
     inkscape:window-width="3840"
     inkscape:window-height="2054"
     inkscape:window-x="-11"
     inkscape:window-y="396"
     inkscape:window-maximized="1"
     inkscape:current-layer="svg42" />
  <!-- Dark night sky -->
  <rect
     width="800"
     height="600"
     fill="#0a0a15"
     id="rect1" />
  <!-- Foggy atmosphere layers -->
  <defs
     id="defs9">
    <radialGradient
       id="fog1"
       cx="50%"
       cy="50%">
      <stop
         offset="0%"
         style="stop-color:#6b7280;stop-opacity:0.4"
         id="stop1" />
      <stop
         offset="100%"
         style="stop-color:#1f2937;stop-opacity:0"
         id="stop2" />
    </radialGradient>
    <radialGradient
       id="fog2"
       cx="30%"
       cy="60%">
      <stop
         offset="0%"
         style="stop-color:#9ca3af;stop-opacity:0.3"
         id="stop3" />
      <stop
         offset="100%"
         style="stop-color:#374151;stop-opacity:0"
         id="stop4" />
    </radialGradient>
    <radialGradient
       id="fog3"
       cx="70%"
       cy="40%">
      <stop
         offset="0%"
         style="stop-color:#6b7280;stop-opacity:0.35"
         id="stop5" />
      <stop
         offset="100%"
         style="stop-color:#1f2937;stop-opacity:0"
         id="stop6" />
    </radialGradient>
    <radialGradient
       id="headlightGlow"
       cx="50%"
       cy="50%">
      <stop
         offset="0%"
         style="stop-color:#fef3c7;stop-opacity:0.8"
         id="stop7" />
      <stop
         offset="50%"
         style="stop-color:#fde68a;stop-opacity:0.4"
         id="stop8" />
      <stop
         offset="100%"
         style="stop-color:#fbbf24;stop-opacity:0"
         id="stop9" />
    </radialGradient>
  </defs>
  <!-- More realistic volumetric fog layers -->
  <!-- Background fog -->
  <ellipse
     cx="150"
     cy="200"
     rx="250"
     ry="180"
     fill="#4b5563"
     opacity="0.15"
     id="ellipse9" />
  <ellipse
     cx="600"
     cy="180"
     rx="280"
     ry="200"
     fill="#6b7280"
     opacity="0.18"
     id="ellipse10" />
  <ellipse
     cx="400"
     cy="250"
     rx="350"
     ry="220"
     fill="#52525b"
     opacity="0.12"
     id="ellipse11" />
  <!-- Mid-ground fog -->
  <ellipse
     cx="250"
     cy="350"
     rx="300"
     ry="160"
     fill="#6b7280"
     opacity="0.22"
     id="ellipse12" />
  <ellipse
     cx="550"
     cy="320"
     rx="320"
     ry="180"
     fill="#71717a"
     opacity="0.20"
     id="ellipse13" />
  <ellipse
     cx="100"
     cy="380"
     rx="200"
     ry="140"
     fill="#52525b"
     opacity="0.18"
     id="ellipse14" />
  <path
     style="fill:#000000;stroke-width:0.251333;stroke-dasharray:none"
     d="m 61.594756,490.96419 c -1.1649,-1.97466 -0.76197,-3.93888 1.131243,-5.51461 2.227642,-1.85407 8.364451,-4.47368 11.799654,-5.0369 3.882979,-0.63663 4.767328,-1.27084 5.171531,-3.70876 0.203988,-1.23035 1.156053,-5.3158 2.115705,-9.07879 l 1.744817,-6.8418 -1.537147,-0.93831 c -0.845434,-0.51607 -2.943091,-2.15269 -4.661455,-3.63694 -4.449873,-3.84359 -5.432469,-7.21856 -5.135933,-17.64067 l 0.226424,-7.95783 -5.933785,-5.05766 c -6.927133,-5.90433 -7.894609,-6.44346 -11.562978,-6.44346 -6.409788,0 -10.15083,-3.61064 -11.412761,-11.01495 -0.604917,-3.54932 -1.093141,-4.72781 -2.267883,-5.47428 -2.267017,-1.44053 -5.415085,-6.8294 -5.422208,-9.28174 -0.0075,-2.59343 1.988145,-4.75099 4.394524,-4.75099 2.532264,0 5.784397,2.07565 8.4888,5.41791 1.899514,2.34753 2.784958,2.96067 4.275565,2.96067 1.033959,0 2.711158,0.28671 3.727114,0.63713 l 1.847187,0.63713 -1.399953,-1.38522 c -1.935354,-1.91499 -3.751753,-5.41786 -5.373295,-10.36226 -2.850853,-8.69284 -2.237754,-17.21626 1.808042,-25.13574 2.636138,-5.16012 8.113829,-11.46673 12.47543,-14.36327 1.486932,-0.98748 2.710531,-2.0823 2.719107,-2.43293 0.0086,-0.35064 -1.590332,-3.50485 -3.553129,-7.00935 -5.252328,-9.37785 -7.738032,-19.19875 -7.834676,-30.95444 -0.07859,-9.55957 1.016108,-13.11061 4.744343,-15.38992 4.146834,-2.53523 10.439019,-0.55447 15.682488,4.93677 7.530972,7.88685 13.344258,22.38668 14.988153,37.38429 0.16236,1.48122 0.31806,2.8951 0.346,3.14197 0.028,0.24687 2.5541,0.44885 5.61368,0.44885 6.21985,0 5.86239,0.26786 6.95295,-5.20984 1.61565,-8.11513 3.99759,-14.22623 9.04951,-23.21747 6.86882,-12.22488 12.25425,-17.0564 19.01184,-17.0564 4.06759,0 6.42787,1.22731 8.48525,4.41219 2.03244,3.14626 2.66998,8.75663 1.66729,14.67207 -1.37133,8.09025 -7.08088,20.49879 -13.30892,28.92421 -3.16555,4.28242 -3.16225,4.32137 0.51116,6.02194 2.49017,1.15281 9.53524,7.58986 10.99491,10.04602 0.60479,1.01767 1.54391,2.30022 2.08693,2.85011 0.54302,0.54989 1.80189,3.28894 2.79749,6.08679 4.37917,12.30643 1.19497,26.48882 -7.82344,34.84545 -3.96879,3.67755 -7.7752,5.62046 -15.64228,7.98429 -3.08404,0.92666 -5.72977,1.76709 -5.87942,1.86764 -0.14964,0.10054 0.0546,0.83325 0.45388,1.62825 0.51912,1.03362 1.73874,1.71256 4.28053,2.38291 6.69612,1.76597 19.06252,7.08857 21.64251,9.3151 5.76137,4.97208 3.87047,8.62085 -7.6216,14.70701 -1.09594,0.5804 -1.08254,0.74839 0.23793,2.98349 3.12107,5.28286 0.81219,8.96636 -5.56782,8.8827 -3.36186,-0.0441 -3.63715,0.0595 -4.02789,1.51584 -0.57838,2.15564 -3.90765,6.46197 -5.92114,7.65882 -1.17107,0.69611 -1.56721,1.36012 -1.33343,2.23509 0.18292,0.68462 1.20542,5.08972 2.27222,9.78911 1.06681,4.6994 2.05532,8.63644 2.1967,8.74899 0.14138,0.11255 3.07721,1.08643 6.52407,2.16419 8.31599,2.60022 12.53404,5.23247 12.53404,7.8218 0,0.30223 -0.59372,1.08814 -1.31937,1.74646 -1.23273,1.11833 -2.19895,1.19694 -14.71298,1.19694 h -13.3936 l -2.72115,-1.81546 c -3.18526,-2.12509 -3.2679,-2.40199 -3.83397,-12.84705 -0.2319,-4.27906 -0.76659,-9.52332 -1.18819,-11.6539 l -0.76654,-3.87379 -2.91685,-0.45174 c -1.81647,-0.28132 -3.23304,-0.21366 -3.75501,0.17934 -1.22019,0.9187 -2.09083,5.55379 -3.10879,16.55049 -1.29956,14.03871 -1.11596,13.91211 -20.175255,13.91211 -12.378529,0 -13.24593,-0.0723 -13.886169,-1.1576 z m 25.49222,-0.58594 c 5.453524,-1.33222 6.752654,-3.62667 6.806524,-12.02127 0.0593,-9.24192 2.01855,-17.76888 4.26042,-18.54215 2.45377,-0.84635 7.59671,0.002 8.60312,1.4185 1.11124,1.56443 2.08757,7.94133 2.69945,17.63144 0.55817,8.83948 1.45254,10.31421 7.09103,11.69239 6.54371,1.59943 21.86992,0.93025 24.05296,-1.05021 0.8569,-0.77739 0.75889,-1.06189 -0.82443,-2.3931 -1.76941,-1.48766 -7.99925,-3.89248 -13.28558,-5.12846 -3.72909,-0.87188 -4.5501,-2.00319 -5.45464,-7.51616 -0.43184,-2.632 -1.43244,-7.14992 -2.22356,-10.03982 l -1.43838,-5.25436 3.43841,-3.07067 c 2.3083,-2.06142 3.67851,-3.87583 4.16895,-5.5204 0.40179,-1.34735 0.84867,-2.81692 0.99306,-3.26571 0.18179,-0.56509 0.71644,-0.67405 1.73879,-0.35438 2.34702,0.73387 6.19854,0.58891 7.34804,-0.27656 1.43426,-1.07987 1.31968,-3.56476 -0.26443,-5.73472 -2.36782,-3.24352 -2.13026,-3.6008 5.1598,-7.76019 3.96607,-2.26287 5.34374,-3.65595 5.3742,-5.4343 0.0233,-1.36295 -3.68945,-4.80686 -7.23557,-6.71157 -2.68613,-1.44279 -16.52631,-6.29588 -16.92452,-5.93462 -0.14829,0.13453 0.70469,0.57734 1.89551,0.98403 2.70128,0.92252 3.34464,1.16479 11.155,4.20066 3.49312,1.35778 6.94709,3.05977 7.67549,3.78223 3.12446,3.09894 2.39478,6.01396 -2.14513,8.56964 -4.62124,2.60145 -6.93384,4.41884 -6.93384,5.44904 0,0.51072 0.65521,2.11876 1.45602,3.57343 1.66116,3.01751 1.24152,4.28493 -1.7375,5.24765 -1.39987,0.45239 -2.32696,0.32091 -4.21963,-0.59847 -3.36072,-1.63248 -5.01896,-4.83862 -4.41654,-8.53922 0.38275,-2.3512 0.98989,-3.26107 3.69826,-5.54227 3.79019,-3.1924 4.04614,-4.62856 1.21066,-6.79305 -2.11171,-1.612 -6.69771,-2.18109 -7.54568,-0.93637 -0.22969,0.33716 0.36554,2.7464 1.32274,5.35388 1.34613,3.66697 1.58133,5.0104 1.03837,5.93081 -1.0063,1.7058 -0.86653,4.46216 0.36823,7.26178 1.97779,4.48429 -0.18673,10.18741 -5.06537,13.34632 -2.7299,1.76761 -3.39439,3.93281 -1.9555,6.3719 0.35542,0.60247 1.40756,4.42246 2.33811,8.48885 0.93055,4.0664 1.83548,8.00892 2.01096,8.76117 0.35171,1.5077 1.94634,2.22722 7.71632,3.48173 5.45275,1.18554 10.37741,3.56969 10.37741,5.02397 0,1.68608 -1.88496,1.93971 -12.66348,1.70392 -8.62469,-0.18867 -9.69084,-0.33586 -12.39989,-1.71192 -3.36776,-1.71064 -3.76035,-2.64669 -3.88662,-9.26696 -0.0939,-4.92195 -1.21659,-14.01559 -2.123,-17.19582 -0.35022,-1.22875 -1.20087,-2.50798 -1.89035,-2.84274 -1.42579,-0.69225 -4.79933,-0.78898 -7.89942,-0.22649 -3.80429,0.69025 -3.80505,0.69298 -5.92307,21.36586 -0.61589,6.01144 -1.755587,7.95172 -5.365772,9.13499 -2.61569,0.85732 -20.897539,1.1084 -22.292914,0.30617 -2.82118,-1.62196 1.574486,-4.53976 10.483633,-6.95893 2.982171,-0.80977 5.82842,-1.77822 6.324998,-2.1521 0.530566,-0.39947 0.90288,-1.84403 0.90288,-3.50313 0,-1.55283 0.621398,-4.95358 1.380881,-7.55721 3.117078,-10.68582 3.142813,-11.806 0.286172,-12.45644 -2.342011,-0.53326 -6.118332,-3.71866 -7.805446,-6.58405 -1.329076,-2.25729 -1.434547,-3.21648 -1.337494,-12.16323 l 0.105359,-9.71269 -3.406362,-2.53516 c -1.873502,-1.39434 -5.272588,-4.09305 -7.553538,-5.99714 -2.280944,-1.9041 -4.358956,-3.48221 -4.617803,-3.50692 -0.258841,-0.0247 -2.115567,-0.10973 -4.126053,-0.18892 -6.490342,-0.25562 -9.208453,-3.19083 -9.208453,-9.94394 0,-3.28459 -0.123232,-3.52869 -3.202925,-6.34425 -1.761609,-1.61052 -3.549946,-3.52865 -3.974083,-4.2625 -1.021682,-1.76774 -0.255097,-4.32021 1.48947,-4.95944 1.376731,-0.50445 1.377501,-0.51344 0.04722,-0.55075 -4.53707,-0.12727 -3.601358,5.858 1.636472,10.46767 2.42598,2.13503 2.684745,2.64845 2.698374,5.35384 0.0083,1.64579 0.560029,4.08074 1.226086,5.41099 1.400597,2.79728 4.814994,5.6327 6.891785,5.72315 4.690454,0.20429 6.211803,0.3925 7.146446,0.88413 0.574666,0.30228 4.010713,3.0478 7.635656,6.10117 l 6.590805,5.55157 -0.327679,8.26611 c -0.270214,6.81645 -0.126831,8.81471 0.817569,11.39418 1.231132,3.36264 4.551286,6.86957 8.102304,8.55813 2.447134,1.16364 2.765367,2.90522 1.248911,6.83499 -0.492284,1.27573 -1.411154,5.01262 -2.041926,8.30421 -0.630772,3.29158 -1.373467,6.38866 -1.650436,6.8824 -0.278335,0.49618 -2.61712,1.34359 -5.228909,1.89458 -4.9357,1.04127 -11.061505,3.78795 -12.245345,5.49057 -1.019822,1.46673 0.330298,3.01918 2.999105,3.44855 3.455772,0.55598 17.775737,0.1381 20.829307,-0.60784 z m 36.469234,-60.54327 c -1.90117,-3.3808 -1.54114,-4.99048 1.1693,-5.22785 2.44233,-0.21388 5.4534,1.99961 5.4534,4.0089 0,1.15015 -3.11373,3.65877 -4.54131,3.65877 -0.39015,0 -1.32678,-1.09792 -2.08139,-2.43982 z m 4.64364,-1.25221 c 0,-0.73566 -2.04804,-2.29267 -3.01571,-2.29267 -1.13651,0 -1.18608,0.65546 -0.19831,2.6222 0.63329,1.26093 0.92804,1.37738 1.97906,0.78191 0.67923,-0.38483 1.23496,-0.88497 1.23496,-1.11144 z m -42.126396,59.33615 c 1.321332,-0.33296 2.775432,-1.01312 3.231328,-1.51147 0.492799,-0.53869 1.305789,-5.57076 2.00501,-12.41022 0.646862,-6.32727 1.459348,-12.17642 1.805538,-12.99809 1.1378,-2.7006 2.74607,-3.42554 8.27527,-3.73014 4.61373,-0.25417 5.36717,-0.14391 6.83297,0.99992 2.0485,1.59853 3.14911,6.81716 3.79482,17.99342 0.24722,4.27905 0.57493,8.19313 0.72824,8.69793 0.15331,0.50481 1.24392,1.44299 2.42357,2.08485 1.83792,1.00001 3.60799,1.19016 12.36996,1.32882 l 10.22514,0.16181 -3.29843,-1.46232 c -1.81414,-0.80428 -5.41599,-1.89397 -8.00413,-2.42155 -2.58813,-0.52757 -5.15386,-1.41914 -5.70162,-1.98127 -0.54776,-0.56212 -1.78275,-4.65775 -2.74441,-9.10139 -0.96166,-4.44364 -2.18088,-9.09471 -2.70938,-10.33572 -1.65056,-3.87587 -1.29254,-5.03879 2.5944,-8.42694 4.73385,-4.12641 5.67631,-6.79826 4.05126,-11.48529 -0.94348,-2.72122 -1.0388,-3.93494 -0.50235,-6.39629 0.67334,-3.08944 0.44789,-4.40799 -1.43138,-8.37139 -2.04487,-4.31265 -0.8227,-6.45278 3.68501,-6.45278 4.88348,0 9.13091,3.15454 9.10328,6.76095 -0.0128,1.6726 -0.47483,2.25325 -3.13336,3.93791 -4.04604,2.5639 -5.17684,6.56294 -2.83922,10.04086 1.30806,1.94615 4.88494,3.2374 6.04717,2.18302 0.35191,-0.31925 0.008,-1.79605 -0.84376,-3.62549 -1.76544,-3.79091 -1.20682,-5.33663 2.80861,-7.7716 1.49734,-0.90799 3.79411,-2.49598 5.10393,-3.52886 2.14708,-1.69313 2.30807,-2.02412 1.63568,-3.36293 -0.91151,-1.8149 -4.96677,-3.92483 -12.94882,-6.73721 -3.3249,-1.17149 -6.63898,-2.38564 -7.36463,-2.69813 -0.72566,-0.31248 -2.50283,-0.90852 -3.94928,-1.32453 -2.03293,-0.5847 -2.93138,-1.29978 -3.95811,-3.15027 -0.73052,-1.31663 -1.77351,-2.35762 -2.31775,-2.31329 -0.54424,0.0443 -6.48142,0.11463 -13.19372,0.15625 l -12.204196,0.0757 -1.884382,4.03303 c -1.036413,2.21817 -2.344069,4.50433 -2.905911,5.08036 -1.624398,1.66542 -4.750756,1.27695 -8.696708,-1.08062 -6.765899,-4.04238 -9.882962,-7.08014 -10.818655,-10.54342 -0.981322,-3.63217 -6.029241,-7.07814 -10.368597,-7.07814 -1.487354,0 -2.558487,-0.77552 -5.361847,-3.88205 -3.092245,-3.42667 -5.157411,-4.80983 -5.149936,-3.44921 0.0048,0.87318 2.626423,4.33891 3.282131,4.33891 0.365884,0 1.540523,1.09616 2.610308,2.43592 1.535186,1.9226 1.939812,3.05074 1.920153,5.35356 -0.05357,6.27258 2.547642,8.96768 8.65524,8.96768 1.511038,0 3.39274,0.31335 4.181566,0.69634 2.086693,1.01314 15.608939,11.91614 15.753047,12.7017 0.0672,0.3663 0.141411,4.97498 0.164922,10.24151 0.0535,11.99175 0.366211,12.64698 8.226928,17.23972 3.783452,2.21054 3.868036,2.65948 1.851587,9.82783 -0.997406,3.54573 -2.114235,8.46539 -2.481853,10.93259 -0.36761,2.46721 -1.081008,4.86016 -1.585325,5.31768 -0.504323,0.45753 -3.389428,1.55745 -6.411358,2.44428 -3.021923,0.88684 -6.681842,2.18501 -8.133151,2.88483 l -2.638745,1.27241 8.905763,0.0231 c 4.89817,0.0127 9.98685,-0.24931 11.308183,-0.58226 z m -4.212553,-73.77002 2.807671,-5.21442 13.519568,-0.0898 c 7.43575,-0.0494 13.89063,-0.11671 14.34416,-0.14962 0.45354,-0.0329 1.41833,1.07161 2.14398,2.45451 0.87627,1.66991 1.96458,2.72604 3.24049,3.14466 1.0566,0.34667 2.07087,0.49444 2.25392,0.32838 0.18305,-0.16606 -0.027,-0.30193 -0.4668,-0.30193 -1.56561,0 -4.03808,-2.90435 -4.03808,-4.74345 0,-1.51214 0.34836,-1.90519 2.14398,-2.41905 l 2.14398,-0.61356 -2.3089,0.33824 c -8.19199,1.20008 -10.96037,1.42581 -17.15184,1.3985 -6.5661,-0.029 -14.44558,-0.61812 -18.801054,-1.40581 -1.833908,-0.33166 -1.870191,-0.30647 -0.494765,0.34348 0.816361,0.38576 1.484294,1.19602 1.484294,1.80057 0,1.84433 -3.332636,8.77574 -4.397646,9.1465 -2.88333,1.00377 -11.17569,-5.25652 -14.056599,-10.61197 -3.434761,-6.38503 -6.535543,-8.79367 -11.320596,-8.79367 -1.765208,0 -3.21,-0.20198 -3.21066,-0.44885 -6.53e-4,-0.24687 -1.660984,-2.06472 -3.689625,-4.03967 -3.331752,-3.24358 -3.434136,-3.30145 -1.058739,-0.59847 4.756439,5.41238 5.872832,6.28393 8.049249,6.28393 4.144122,0 8.481875,3.30092 10.223875,7.78011 1.241272,3.19167 3.263764,5.23359 8.57592,8.65828 4.118816,2.65535 5.48467,3.29501 6.596861,3.08943 0.362827,-0.067 1.923137,-2.46841 3.467356,-5.33635 z m -2.489767,-1.43279 c 1.522133,-3.69076 1.227148,-4.34719 -1.967118,-4.37735 -0.907069,-0.009 -4.24673,-1.19206 -7.421469,-2.63 -3.17474,-1.43794 -5.772254,-2.56924 -5.772254,-2.51401 0,0.0552 0.593718,1.15689 1.319372,2.44814 0.725655,1.29126 1.319373,2.64437 1.319373,3.00692 0,1.30763 9.558443,8.32428 10.568376,7.75803 0.308482,-0.17296 1.187653,-1.83424 1.95372,-3.69173 z m -1.307432,-6.57044 c -0.544241,-0.16524 -2.10275,-0.68042 -3.463352,-1.14485 -1.360603,-0.46443 -2.473823,-0.71271 -2.473823,-0.55174 0,0.49554 4.210176,1.99379 5.607332,1.99545 0.880186,0.001 0.989984,-0.0984 0.329843,-0.29886 z m 40.570698,-1.32682 c 12.9808,-3.54826 18.76224,-7.61869 23.28621,-16.39469 2.21842,-4.30349 2.97194,-8.47382 2.61461,-14.47034 -0.63342,-10.62947 -6.9921,-19.80664 -18.14112,-26.1822 -4.35045,-2.4878 -4.43519,-3.63211 -0.65597,-8.85812 6.08669,-8.41683 8.92618,-13.50924 11.72394,-21.02601 5.00537,-13.44794 1.90025,-25.01893 -5.92484,-22.07845 -5.29161,1.98846 -13.87752,14.42915 -18.39588,26.65499 -1.49283,4.03935 -3.41271,12.06339 -3.41271,14.2633 0,2.97092 -1.79298,3.92713 -7.91624,4.22184 -3.08403,0.14843 -6.81798,0.45142 -8.29768,0.67333 -3.845026,0.57662 -4.892608,-0.55357 -4.908196,-5.29524 -0.02975,-9.0579 -4.227555,-23.25209 -9.237317,-31.23465 -2.090235,-3.3306 -7.263216,-8.52524 -10.023139,-10.06511 -2.379276,-1.3275 -4.927558,-1.2735 -5.750721,0.12187 -2.2908,3.88319 -2.79476,15.36431 -0.988441,22.51845 2.431419,9.62998 4.98794,15.54684 10.060253,23.28365 1.390882,2.12152 2.043596,3.75823 1.788983,4.48599 -0.220473,0.63019 -1.997642,2.26339 -3.949257,3.62934 -7.210561,5.04668 -11.380028,10.03049 -14.286737,17.07708 -1.155671,2.80164 -1.480039,4.84037 -1.475902,9.27628 0.01399,15.01817 6.789674,23.71376 22.114546,28.38076 7.714013,2.34922 11.049454,2.68437 24.623768,2.47423 10.42731,-0.16143 13.3102,-0.4062 17.15184,-1.4563 z M 89.823902,396.3209 c -5.669186,-0.75471 -8.46177,-1.98918 -8.46177,-3.74053 0,-2.59601 1.32029,-2.9688 6.846713,-1.93322 2.73461,0.51244 5.875105,0.9317 6.978885,0.9317 1.83903,0 2.00687,-0.16868 2.00687,-2.01681 0,-1.95304 -0.096,-2.02663 -3.03658,-2.32732 -3.680593,-0.37636 -5.20844,-1.5676 -4.64103,-3.61855 0.537697,-1.94355 1.842351,-2.32977 5.41577,-1.60327 2.00848,0.40834 4.40665,0.39071 7.57816,-0.0557 3.54478,-0.49896 4.86617,-0.48267 5.59892,0.069 2.21586,1.66835 0.39697,4.29484 -3.49377,5.04503 -1.9257,0.37131 -2.14398,0.62753 -2.14398,2.51665 v 2.10325 l 3.42613,-0.42748 c 1.88437,-0.23512 5.03146,-0.92855 6.99351,-1.54096 4.33185,-1.35207 6.26928,-0.78302 5.94713,1.74676 -0.14952,1.17409 -0.86981,1.90047 -2.68045,2.70309 -5.30497,2.35157 -17.39759,3.33807 -26.334508,2.14833 z m 22.213638,-2.66069 c 2.17696,-0.54702 4.34177,-1.28156 4.81068,-1.6323 1.78392,-1.33437 -0.3761,-1.56189 -4.30266,-0.45321 -2.24769,0.63464 -5.6127,1.33754 -7.47782,1.562 -3.91348,0.47097 -4.54876,-0.01 -4.56461,-3.45393 -0.0143,-3.11879 0.55796,-4.08862 2.41275,-4.08862 1.74607,0 4.17391,-0.96949 4.17417,-1.66684 2e-4,-0.52043 -15.132703,-0.36456 -15.712943,0.16184 -0.717805,0.6512 1.443653,1.48634 3.871423,1.49584 1.28804,0.005 2.69811,0.33234 3.13351,0.72733 0.83275,0.75547 1.07257,4.50442 0.3912,6.11529 -0.51361,1.21426 -4.28397,1.23001 -10.457084,0.0437 -2.637247,-0.50681 -4.837084,-0.65846 -5.170048,-0.35639 -0.81834,0.7424 0.243009,1.20801 4.983845,2.18639 5.282927,1.09026 18.419207,0.738 23.907587,-0.6411 z M 76.876267,380.6867 c -1.08428,-0.98366 -0.993606,-2.57402 0.197906,-3.47113 1.890805,-1.42361 1.109796,-2.33818 -2.35256,-2.75485 -1.838149,-0.22122 -3.783531,-0.80268 -4.323068,-1.29215 -1.294278,-1.17417 -0.912782,-3.24961 0.738452,-4.01736 0.939262,-0.43671 1.319373,-1.21691 1.319373,-2.70809 v -2.09465 l 8.575919,-0.41944 c 7.600728,-0.37175 8.67186,-0.30501 9.419595,0.58689 1.169029,1.39442 0.75887,2.64903 -1.179361,3.60751 l -1.64337,0.81267 1.590945,-0.31806 c 2.373748,-0.47456 4.016382,0.58368 4.016382,2.58748 0,1.84197 -1.251466,2.45627 -6.682312,3.28014 -1.946492,0.29528 -2.462327,0.6715 -2.757695,2.01131 -0.821758,3.72751 -4.784868,6.12692 -6.920206,4.18973 z m 5.355074,-4.9673 c 0.868893,-2.28249 1.07707,-2.41767 4.473928,-2.90518 1.959446,-0.28121 3.930436,-0.78302 4.379973,-1.11513 1.078008,-0.79641 0.359139,-1.78973 -1.037786,-1.43398 -0.604411,0.15392 -2.320888,0.45178 -3.814391,0.6619 -2.335396,0.32856 -2.762655,0.21831 -3.052653,-0.78774 -0.481604,-1.67076 0.142209,-2.25297 3.078645,-2.87331 1.423411,-0.30071 2.725164,-0.92 2.89279,-1.3762 0.245779,-0.66892 -0.382796,-0.75456 -3.247708,-0.44248 -1.953867,0.21283 -5.407845,0.38931 -7.675516,0.39217 -3.153016,0.004 -4.123038,0.20868 -4.123038,0.87011 0,0.60725 0.933509,0.91926 3.133509,1.04732 2.908701,0.16932 3.149111,0.30637 3.350975,1.91023 l 0.217465,1.72782 -4.670347,-0.4175 c -3.201179,-0.28616 -4.670346,-0.21318 -4.670346,0.23202 0,0.92411 2.938413,1.81684 5.98012,1.81684 2.475585,0 2.595799,0.0879 2.595799,1.8979 0,1.04384 -0.474367,2.37343 -1.054152,2.95464 -0.579785,0.5812 -0.840618,1.37018 -0.579633,1.75328 0.704162,1.03363 2.728079,-1.03812 3.822366,-3.91271 z m 4.573204,-6.68029 c -0.453534,-0.16602 -1.195681,-0.16602 -1.649215,0 -0.453537,0.16602 -0.08246,0.30186 0.824607,0.30186 0.907069,0 1.278142,-0.13584 0.824608,-0.30186 z m 21.736655,8.05677 c -1.25313,-1.13685 -0.94089,-2.61755 1.19682,-5.67558 2.36648,-3.38527 3.47094,-4.05434 5.25937,-3.18602 1.86422,0.90512 1.68964,3.42727 -0.43599,6.29887 -2.52806,3.41525 -4.26531,4.15477 -6.0202,2.56273 z m 4.50148,-3.88907 c 1.29041,-1.84595 1.74241,-3.01432 1.31583,-3.40131 -0.35737,-0.32421 -0.73986,-0.47277 -0.84998,-0.33013 -2.3109,2.99323 -3.77989,5.25794 -3.77989,5.82735 0,1.50707 1.42567,0.60543 3.31404,-2.09591 z m 10.8029,3.55075 c -1.62757,-0.98572 -4.29165,-5.67977 -4.09583,-7.21678 0.16452,-1.29142 0.58802,-1.63569 2.18734,-1.77815 1.76505,-0.15722 2.25897,0.20305 4.48796,3.27366 2.9442,4.05585 2.92628,6.18527 -0.0519,6.17012 -0.99086,-0.005 -2.12826,-0.20702 -2.52756,-0.44885 z m 3.0349,-1.60663 c 0,-0.4761 -4.00623,-5.6718 -4.65291,-6.03438 -1.63155,-0.91479 -0.20238,3.09955 1.87133,5.25629 0.90234,0.93846 2.78158,1.46415 2.78158,0.77809 z m -0.66692,-6.46355 c -2.07751,-3.09117 -1.42962,-5.83508 1.37777,-5.83508 0.60866,0 1.47621,-0.40397 1.92789,-0.89771 1.33443,-1.45868 3.57801,-1.05966 5.19447,0.92383 1.96836,2.4153 1.69554,4.98117 -0.56033,5.26978 -0.89808,0.11489 -2.02814,0.72084 -2.51123,1.34656 -1.40071,1.81422 -3.9183,1.43978 -5.42857,-0.80738 z m 3.96535,-0.46991 c 0,-0.90066 -2.0297,-3.56976 -2.71462,-3.56976 -0.84347,0 -0.71697,1.61822 0.23456,3.00047 0.86187,1.25201 2.48006,1.62346 2.48006,0.56929 z m 3.26361,-3.92801 c -0.90416,-1.53267 -2.60393,-1.95847 -2.60393,-0.6523 0,0.43167 0.65142,1.41919 1.44761,2.19449 1.71831,1.67322 2.46539,0.67684 1.15632,-1.54219 z m -11.35851,41.88956 c -0.21921,-0.19887 -0.78819,-0.22012 -1.2644,-0.0472 -0.52625,0.19104 -0.36994,0.33286 0.39856,0.36157 0.69542,0.026 1.08505,-0.11546 0.86584,-0.31433 z m 8.42474,-3.29526 c 0.36283,-0.33113 -0.60541,-0.0895 -2.15164,0.53689 -3.64251,1.47568 -4.59405,2.35269 -1.14679,1.05698 1.45131,-0.5455 2.9356,-1.26274 3.29843,-1.59387 z m -60.064423,0.76027 c -1.415027,-1.13504 -5.77164,-3.26344 -5.318554,-2.59836 0.269158,0.3951 1.583372,1.24257 2.920463,1.88326 2.668543,1.27868 3.356424,1.4838 2.398091,0.7151 z m 66.160463,-4.53675 c 3.31928,-2.78789 8.9796,-10.2647 6.87947,-9.08719 -0.40481,0.22697 -1.25679,1.40828 -1.8933,2.62515 -1.20365,2.30113 -5.91679,6.95254 -8.77331,8.6584 -0.90707,0.54169 -1.29506,0.99901 -0.86221,1.01628 0.43286,0.0173 2.52506,-1.42842 4.64935,-3.21264 z m -75.348921,-1.65585 c -1.692181,-1.70746 -3.522731,-3.88698 -4.067895,-4.84337 -0.545158,-0.95641 -1.141462,-1.6026 -1.325112,-1.43598 -0.532538,0.48312 1.732046,3.46043 4.975261,6.54109 3.997533,3.79717 4.270709,3.62601 0.417746,-0.26174 z m -7.205158,-12.44737 c -0.580293,-1.60952 -1.059627,-4.22235 -1.065182,-5.80629 -0.007,-1.98536 -0.19844,-2.60981 -0.616424,-2.01038 -0.333478,0.47823 -0.458495,1.69014 -0.27782,2.69311 0.583545,3.23943 2.537588,9.34793 2.779601,8.68927 0.129199,-0.35163 -0.239882,-1.9562 -0.820175,-3.56571 z m 91.280769,1.4878 c 0,-0.32916 -0.28776,-0.19451 -0.63948,0.29923 -0.35172,0.49374 -0.63948,1.16702 -0.63948,1.49618 0,0.32916 0.28776,0.1945 0.63948,-0.29924 0.35172,-0.49374 0.63948,-1.16701 0.63948,-1.49617 z m 1.24685,-4.18929 v -1.19694 l -0.56695,1.19694 c -0.31183,0.65831 -0.56696,1.73556 -0.56696,2.39388 v 1.19694 l 0.56696,-1.19694 c 0.31182,-0.65832 0.56695,-1.73557 0.56695,-2.39388 z m 0.56611,-7.9215 c -0.15163,-0.90971 -0.27975,-0.30746 -0.2847,1.33833 -0.005,1.64579 0.11911,2.3901 0.27569,1.65402 0.15659,-0.73608 0.16064,-2.08264 0.009,-2.99235 z m -95.017545,-0.27006 c -0.210585,-0.47742 -0.366904,-0.33561 -0.398556,0.36158 -0.02863,0.63088 0.127267,0.98436 0.34648,0.78549 0.219207,-0.19887 0.242639,-0.71505 0.05205,-1.14707 z m 0.666204,-3.3176 c -0.167257,-0.58229 -0.315106,-0.25077 -0.32855,0.7367 -0.01346,0.98748 0.1234,1.46389 0.304108,1.05871 0.180702,-0.40518 0.191698,-1.21311 0.02441,-1.79541 z m 93.230021,-3.17639 -0.70865,-1.47314 0.33945,1.49618 c 0.18669,0.82289 0.38797,2.16945 0.44729,2.99235 l 0.10785,1.49617 0.26136,-1.51922 c 0.14374,-0.83557 -0.0575,-2.18212 -0.4473,-2.99234 z m -90.80334,-4.2049 c 0.226405,-0.80164 -0.159393,-0.38028 -0.857328,0.93635 -0.697934,1.31664 -1.279369,2.79785 -1.292074,3.29159 -0.02639,1.02572 1.530604,-2.03696 2.149402,-4.22794 z m 89.35126,-0.11097 c -0.39161,-1.06976 -1.153,-2.34899 -1.69196,-2.84273 -0.86831,-0.79544 -0.89608,-0.74889 -0.24375,0.40856 0.4049,0.71845 1.02595,1.99768 1.38011,2.84273 0.9339,2.22842 1.39641,1.88831 0.5556,-0.40856 z m -85.731522,-5.794 c 1.159378,-1.6232 4.252178,-4.76026 6.87288,-6.97124 2.620702,-2.21098 4.060672,-3.68357 3.199927,-3.27242 -2.353754,1.12429 -9.441329,7.92903 -11.176178,10.73018 -2.093719,3.38059 -1.458771,3.1006 1.103371,-0.48652 z m 81.914032,-0.60622 c -0.37754,-0.63999 -1.0125,-1.34642 -1.41101,-1.56986 -0.39851,-0.22344 -0.21434,0.30019 0.40926,1.16361 1.32044,1.82824 2.0042,2.10553 1.00175,0.40625 z m -2.65841,-3.32491 c -0.45168,-0.49374 -1.13848,-0.89771 -1.52623,-0.89771 -0.38775,0 -0.12876,0.3954 0.57554,0.87867 1.6548,1.13549 1.97795,1.14196 0.95069,0.019 z m -3.64515,-3.30757 c -1.73476,-1.64267 -6.25014,-4.46193 -6.25014,-3.90237 0,0.28414 7.4743,5.70314 7.87473,5.70931 0.15859,0.002 -0.57247,-0.81068 -1.62459,-1.80694 z m -63.428959,-8.26471 c -1.003039,-1.53505 -2.792372,-4.54153 -3.976284,-6.68106 -1.183919,-2.13953 -2.144897,-3.48608 -2.135516,-2.99234 0.0094,0.49373 0.892858,2.37891 1.963278,4.18928 1.07042,1.81038 2.579327,4.56581 3.353125,6.12319 0.773806,1.55737 1.67966,2.67867 2.013013,2.49176 0.333359,-0.1869 -0.21457,-1.59578 -1.217616,-3.13083 z m 54.907669,2.40389 c -0.24512,-0.70064 0.56449,-2.31353 2.2701,-4.52242 1.45811,-1.88836 3.24552,-4.56271 3.97202,-5.94299 1.47207,-2.7968 1.15382,-2.4196 -3.80605,4.51102 -3.40255,4.75451 -3.90053,5.84886 -3.02356,6.64445 0.76331,0.69248 0.98151,0.43618 0.58749,-0.69006 z m -25.27226,-4.96549 c 2.53654,0.007 4.40332,-0.17602 4.14839,-0.40732 -0.25493,-0.2313 -3.33317,-0.43059 -6.84053,-0.44286 l -6.377031,-0.0223 -0.401148,-2.37156 -0.401155,-2.37157 -0.09361,2.74299 c -0.114145,3.34448 0.253742,3.72731 3.114024,3.24052 1.23153,-0.20961 4.31451,-0.37514 6.85106,-0.36787 z m 7.48478,-5.06542 c 0.86714,-4.97704 2.72966,-11.6896 4.02215,-14.49592 0.51754,-1.12371 0.80763,-2.1641 0.64462,-2.31198 -0.60622,-0.54997 -3.70853,8.08872 -5.08621,14.16305 -0.78387,3.45616 -1.5849,6.52085 -1.78006,6.81042 -0.19516,0.28957 0.0575,0.40251 0.56158,0.25097 0.5604,-0.16847 1.19673,-1.8843 1.63792,-4.41654 z m -18.203166,-6.83414 c -0.455876,-2.65857 -0.976533,-4.69981 -1.157017,-4.53608 -0.180477,0.16374 0.05898,2.46011 0.53205,5.10305 0.473107,2.64294 0.993765,4.68417 1.157017,4.53607 0.163253,-0.1481 -0.07617,-2.44447 -0.53205,-5.10304 z m -25.500116,2.6673 c -0.214854,-0.50793 -0.532123,-0.79516 -0.70504,-0.63829 -0.172924,0.15688 -0.11873,0.57246 0.120426,0.92352 0.650483,0.95483 1.03068,0.76934 0.584614,-0.28523 z m 71.207152,-2.06034 c 0.19137,-0.6639 0.11461,-1.07625 -0.17058,-0.91635 -0.2852,0.1599 -0.67512,0.83393 -0.86649,1.49783 -0.19137,0.6639 -0.11461,1.07626 0.17058,0.91635 0.2852,-0.1599 0.67512,-0.83393 0.86649,-1.49783 z m -72.471447,-1.46192 c -0.242646,-0.87706 -0.568399,-1.47924 -0.723894,-1.33818 -0.155501,0.14107 -0.0842,0.97409 0.15845,1.85115 0.242646,0.87707 0.568399,1.47925 0.723894,1.33818 0.155501,-0.14107 0.0842,-0.97409 -0.15845,-1.85115 z m 74.874747,-3.63357 c 0,-0.32916 -0.42425,0.0748 -0.94278,0.89771 -0.51852,0.82289 -0.94277,1.76548 -0.94277,2.09464 0,0.32916 0.42425,-0.0748 0.94277,-0.8977 0.51853,-0.8229 0.94278,-1.76549 0.94278,-2.09465 z m -76.836667,-4.16209 c -0.252343,-1.52658 -0.593744,-2.65319 -0.758666,-2.50358 -0.164921,0.14962 -0.09339,1.52106 0.158945,3.04765 0.252343,1.52659 0.593744,2.65319 0.758666,2.50358 0.164921,-0.14962 0.09339,-1.52106 -0.158945,-3.04765 z m 27.197911,1.35676 c -0.210585,-0.47741 -0.366904,-0.33561 -0.398556,0.36158 -0.02863,0.63089 0.127267,0.98436 0.34648,0.78549 0.219207,-0.19887 0.242639,-0.71505 0.05205,-1.14707 z m 52.274436,-4.07707 c 0.015,-1.38435 -0.99282,0.44542 -1.48327,2.69311 l -0.39176,1.79541 0.93266,-1.79541 c 0.51298,-0.98747 0.93704,-2.19937 0.94237,-2.69311 z m -53.387881,0.77064 c -0.7188,-1.01698 -0.737417,-1.01567 -0.376535,0.0264 0.20881,0.60295 0.403094,1.41088 0.431738,1.79541 0.0376,0.5046 0.142353,0.49726 0.376529,-0.0264 0.178452,-0.39905 -0.01583,-1.20699 -0.431732,-1.79541 z M 59.943892,306.14711 c 0.01319,-5.39543 -0.164394,-7.89657 -0.456747,-6.43338 -0.610803,3.05701 -0.674067,8.91523 -0.134833,12.48434 0.230731,1.52715 0.453376,2.77656 0.494764,2.77647 0.04143,-10e-5 0.08496,-3.97244 0.09682,-8.82743 z m 55.649268,6.14101 c 1.93105,-3.72692 1.68706,-4.26436 -0.29193,-0.64304 -1.67856,3.07158 -1.78376,3.32963 -1.35728,3.32963 0.14145,0 0.8836,-1.20897 1.64921,-2.68659 z m 25.59136,0.77897 c -0.21058,-0.47742 -0.3669,-0.33561 -0.39855,0.36157 -0.0286,0.63089 0.12726,0.98436 0.34648,0.7855 0.21921,-0.19888 0.24264,-0.71506 0.0521,-1.14707 z m 1.07765,-4.07708 c 0.2621,-1.79828 0.19841,-2.29541 -0.19167,-1.49617 -0.55787,1.14299 -0.93514,4.9585 -0.43889,4.43865 0.13092,-0.13715 0.41468,-1.46127 0.63056,-2.94248 z m -58.559432,-1.14132 c -1.449112,-2.54223 -1.919185,-2.34492 -0.562488,0.2361 0.603402,1.14792 1.214206,1.98088 1.357344,1.85102 0.143139,-0.12985 -0.214543,-1.06906 -0.794856,-2.08712 z m 37.191732,-4.54414 c 0.81493,-1.31664 0.98824,-1.85526 0.38515,-1.19694 -1.22497,1.33712 -3.48417,5.12848 -2.49631,4.18929 0.3462,-0.32916 1.29623,-1.67572 2.11116,-2.99235 z m -39.532338,0.29923 c -0.421618,-0.7147 -0.911527,-1.16795 -1.088686,-1.00724 -0.177159,0.16072 0.05832,0.84482 0.523243,1.52021 0.46494,0.67541 0.954843,1.12866 1.088687,1.00725 0.133837,-0.12142 -0.101625,-0.80552 -0.523244,-1.52022 z m 60.997738,-1.94502 c -0.6045,-3.27805 -2.83803,-6.79554 -4.84065,-7.62332 -0.8655,-0.35775 -1.70607,-0.53031 -1.86795,-0.38346 -0.16186,0.14685 0.32547,0.44545 1.08298,0.66356 1.84606,0.53155 4.65932,4.38728 4.65932,6.38587 0,1.68759 0.57911,3.50084 1.1181,3.50084 0.17448,0 0.10617,-1.14457 -0.1518,-2.54349 z m -62.327539,-0.29924 c -0.02264,-0.974 -7.051207,-7.26552 -9.225177,-8.25778 -2.059414,-0.93998 -2.21107,-0.94685 -1.403521,-0.0637 0.497964,0.5446 1.28113,0.99018 1.740377,0.99018 0.459247,0 2.575124,1.73129 4.701946,3.8473 4.13226,4.11125 4.202306,4.16954 4.186375,3.48396 z m 48.827209,-6.55816 c 0,-0.44938 -0.59229,0.0257 -3.326,2.66811 l -2.94102,2.84273 3.13351,-2.66811 c 1.72343,-1.46745 3.13351,-2.74668 3.13351,-2.84273 z m -66.047458,-1.6708 c 1.059271,-1.18675 1.055728,-1.18723 -0.415926,-0.0569 -0.816361,0.62705 -1.460855,1.56964 -1.432211,2.09465 0.0442,0.8102 0.107106,0.8188 0.415925,0.0568 0.200109,-0.49373 0.84461,-1.43632 1.432212,-2.09464 z m 3.198607,-1.25928 c -0.219214,-0.19887 -0.788193,-0.22013 -1.264401,-0.0472 -0.526251,0.19105 -0.369939,0.33286 0.398563,0.36158 0.695414,0.026 1.085045,-0.11547 0.865838,-0.31433 z"
     id="path1" />
  <ellipse
     cx="650"
     cy="360"
     rx="250"
     ry="150"
     fill="#6b7280"
     opacity="0.16"
     id="ellipse15" />
  <!-- Road -->
  <path
     d="M 0 450 Q 400 420 800 450 L 800 600 L 0 600 Z"
     fill="#1a1a24"
     opacity="0.6"
     id="path15" />
  <!-- Road markings (faded in fog) -->
  <rect
     x="390"
     y="440"
     width="20"
     height="40"
     fill="#4b5563"
     opacity="0.3"
     id="rect15" />
  <rect
     x="390"
     y="510"
     width="20"
     height="40"
     fill="#4b5563"
     opacity="0.3"
     id="rect16" />
  <!-- Headlight beams from taxi (yellow-tinted, pointing forward) -->
  <ellipse
     cx="380"
     cy="330"
     rx="200"
     ry="80"
     fill="url(#headlightGlow)"
     opacity="0.5"
     id="ellipse16" />
  <ellipse
     cx="360"
     cy="330"
     rx="150"
     ry="60"
     fill="url(#headlightGlow)"
     opacity="0.4"
     id="ellipse17" />
  <!-- Taxi cab (yellow) - facing right toward collision -->
  <g
     id="taxi">
    <!-- Body -->
    <rect
       x="220"
       y="305"
       width="120"
       height="50"
       fill="#06b6d4"
       stroke="#0e7490"
       stroke-width="2"
       id="rect17" />
    <polygon
       points="240,305 320,305 330,275 250,275"
       fill="#06b6d4"
       stroke="#0e7490"
       stroke-width="2"
       id="polygon17" />
    <!-- Windows -->
    <rect
       x="255"
       y="280"
       width="25"
       height="20"
       fill="#1e293b"
       opacity="0.7"
       id="rect18" />
    <rect
       x="290"
       y="280"
       width="30"
       height="20"
       fill="#1e293b"
       opacity="0.7"
       id="rect19" />
    <!-- Wheels -->
    <circle
       cx="250"
       cy="355"
       r="12"
       fill="#1f2937"
       stroke="#374151"
       stroke-width="2"
       id="circle19" />
    <circle
       cx="310"
       cy="355"
       r="12"
       fill="#1f2937"
       stroke="#374151"
       stroke-width="2"
       id="circle20" />
    <!-- Headlights (front of taxi) -->
    <rect
       x="340"
       y="315"
       width="8"
       height="12"
       fill="#fef3c7"
       opacity="0.9"
       id="rect20" />
    <rect
       x="340"
       y="332"
       width="8"
       height="12"
       fill="#fde68a"
       opacity="0.8"
       id="rect21" />
    <!-- Front damage/crumple -->
    <polygon
       points="340,310 348,315 348,345 340,350"
       fill="#0e7490"
       opacity="0.8"
       id="polygon21" />
  </g>
  <!-- Other car (sedan) - positioned perpendicular, getting hit on the side -->
  <g
     id="sedan">
    <!-- Body -->
    <rect
       x="340"
       y="295"
       width="130"
       height="55"
       fill="#06b6d4"
       stroke="#0e7490"
       stroke-width="2"
       id="rect22" />
    <polygon
       points="360,295 450,295 445,265 370,265"
       fill="#06b6d4"
       stroke="#0e7490"
       stroke-width="2"
       id="polygon22" />
    <!-- Windows -->
    <rect
       x="375"
       y="270"
       width="25"
       height="20"
       fill="#1e293b"
       opacity="0.7"
       id="rect23" />
    <rect
       x="410"
       y="270"
       width="30"
       height="20"
       fill="#1e293b"
       opacity="0.7"
       id="rect24" />
    <!-- Wheels -->
    <circle
       cx="370"
       cy="350"
       r="12"
       fill="#1f2937"
       stroke="#374151"
       stroke-width="2"
       id="circle24" />
    <circle
       cx="440"
       cy="350"
       r="12"
       fill="#1f2937"
       stroke="#374151"
       stroke-width="2"
       id="circle25" />
    <!-- Headlights (front) -->
    <rect
       x="470"
       y="305"
       width="8"
       height="10"
       fill="#dbeafe"
       opacity="0.6"
       id="rect25" />
    <rect
       x="470"
       y="320"
       width="8"
       height="10"
       fill="#bfdbfe"
       opacity="0.5"
       id="rect26" />
    <!-- Side damage where taxi hits -->
    <polygon
       points="340,310 335,315 335,335 340,340"
       fill="#0e7490"
       opacity="0.8"
       id="polygon26" />
  </g>
  <!-- Impact point/collision effect - centered between the two cars -->
  <g
     opacity="0.8"
     id="g29">
    <circle
       cx="340"
       cy="325"
       r="30"
       fill="#fbbf24"
       opacity="0.25"
       id="circle26" />
    <circle
       cx="340"
       cy="325"
       r="20"
       fill="#f59e0b"
       opacity="0.35"
       id="circle27" />
    <circle
       cx="340"
       cy="325"
       r="12"
       fill="#fef3c7"
       opacity="0.5"
       id="circle28" />
    <circle
       cx="340"
       cy="325"
       r="6"
       fill="#ffffff"
       opacity="0.6"
       id="circle29" />
  </g>
  <!-- Debris particles -->
  <circle
     cx="325"
     cy="310"
     r="3"
     fill="#9ca3af"
     opacity="0.7"
     id="circle30" />
  <circle
     cx="355"
     cy="315"
     r="2.5"
     fill="#9ca3af"
     opacity="0.6"
     id="circle31" />
  <circle
     cx="330"
     cy="340"
     r="2.5"
     fill="#9ca3af"
     opacity="0.7"
     id="circle32" />
  <circle
     cx="360"
     cy="335"
     r="2"
     fill="#9ca3af"
     opacity="0.6"
     id="circle33" />
  <circle
     cx="340"
     cy="305"
     r="2"
     fill="#fbbf24"
     opacity="0.5"
     id="circle34" />
  <circle
     cx="345"
     cy="345"
     r="2"
     fill="#06b6d4"
     opacity="0.5"
     id="circle35" />
  <rect
     x="320"
     y="320"
     width="4"
     height="2"
     fill="#9ca3af"
     opacity="0.6"
     transform="rotate(45 322 321)"
     id="rect35" />
  <rect
     x="358"
     y="328"
     width="5"
     height="2"
     fill="#9ca3af"
     opacity="0.6"
     transform="rotate(-30 360 329)"
     id="rect36" />
  <!-- Foreground fog layers (more dense, obscuring) -->
  <ellipse
     cx="120"
     cy="480"
     rx="220"
     ry="140"
     fill="#71717a"
     opacity="0.28"
     id="ellipse36" />
  <ellipse
     cx="680"
     cy="500"
     rx="200"
     ry="130"
     fill="#6b7280"
     opacity="0.30"
     id="ellipse37" />
  <ellipse
     cx="400"
     cy="520"
     rx="280"
     ry="150"
     fill="#78716c"
     opacity="0.25"
     id="ellipse38" />
  <ellipse
     cx="300"
     cy="460"
     rx="180"
     ry="110"
     fill="#71717a"
     opacity="0.22"
     id="ellipse39" />
  <ellipse
     cx="550"
     cy="490"
     rx="200"
     ry="120"
     fill="#6b7280"
     opacity="0.26"
     id="ellipse40" />
  <!-- Very close fog wisps -->
  <ellipse
     cx="50"
     cy="550"
     rx="150"
     ry="80"
     fill="#9ca3af"
     opacity="0.35"
     id="ellipse41" />
  <ellipse
     cx="750"
     cy="560"
     rx="140"
     ry="75"
     fill="#9ca3af"
     opacity="0.32"
     id="ellipse42" />
</svg>
